<svg width="128" height="128" viewBox="0 0 128 128" xmlns="http://www.w3.org/2000/svg" role="img" aria-label="Darul Ummah School Logo">
  <defs>
    <linearGradient id="g" x1="0" x2="1" y1="0" y2="1">
      <stop offset="0%" stop-color="#0b3d91"/>
      <stop offset="100%" stop-color="#0a6fb3"/>
    </linearGradient>
  </defs>
  <rect rx="20" ry="20" width="128" height="128" fill="url(#g)"/>
  <g fill="#e6f7f1">
    <path d="M64 20l42 18v6H22v-6l42-18z"/>
    <path d="M32 52h64v6H32z"/>
    <path d="M28 64h72v34a6 6 0 0 1-6 6H34a6 6 0 0 1-6-6V64z"/>
    <circle cx="64" cy="81" r="12" fill="#fff"/>
    <path d="M64 70a11 11 0 1 1 0 22 11 11 0 0 1 0-22m0-6a17 17 0 1 0 0 34 17 17 0 0 0 0-34z" fill="#b6ead5"/>
  </g>
</svg>
